<svg width="100" height="100" viewBox="0 0 100 100" fill="none" xmlns="http://www.w3.org/2000/svg">
<path d="M36.9567 45.426L41.9147 64H47.6127L54.4577 37.434H48.9447L44.6157 55.527L39.8797 37.434H34.1447L29.2607 55.453L24.9687 37.434H19.4927L26.3007 64H31.9987L36.9567 45.426Z" fill="black"/>
<path fill-rule="evenodd" clip-rule="evenodd" d="M66.2136 55.342H70.3946C72.5652 55.342 74.4276 54.9967 75.9816 54.306C77.5602 53.5907 78.7689 52.5547 79.6076 51.198C80.4709 49.8413 80.9026 48.201 80.9026 46.277C80.9026 44.3283 80.4709 42.7003 79.6076 41.393C78.7689 40.0857 77.5602 39.099 75.9816 38.433C74.4276 37.767 72.5652 37.434 70.3946 37.434H60.5896V64H66.2136V55.342ZM66.2136 42.17H70.3576C71.9362 42.17 73.1572 42.54 74.0206 43.28C74.8839 43.9953 75.3156 45.0067 75.3156 46.314C75.3156 47.6213 74.8839 48.6697 74.0206 49.459C73.1572 50.2237 71.9362 50.606 70.3576 50.606H66.2136V42.17Z" fill="black"/>
<path fill-rule="evenodd" clip-rule="evenodd" d="M100 50C100 77.6142 77.6142 100 50 100C22.3858 100 0 77.6142 0 50C0 22.3858 22.3858 0 50 0C77.6142 0 100 22.3858 100 50ZM96 50C96 75.4051 75.4051 96 50 96C24.5949 96 4 75.4051 4 50C4 24.5949 24.5949 4 50 4C75.4051 4 96 24.5949 96 50Z" fill="black"/>
</svg>
